<svg xmlns="http://www.w3.org/2000/svg" xmlns:xlink="http://www.w3.org/1999/xlink" width="180" height="26"><defs><path id="a" d="M0 .767h32.046v24.267H0z"/></defs><g fill="none" fill-rule="evenodd"><g transform="translate(0 .22)"><mask id="b" fill="#fff"><use xlink:href="#a"/></mask><path fill="#686868" d="M27.627 12.9v.002h4.419V12.9c0-6.703-5.607-12.133-12.528-12.133-4.524 0-8.47 2.325-10.674 5.797V.767H4.42L0 5.05h4.42v19.984h4.424v-5.801a11.787 11.787 0 0 1-1.857-6.33c0-2.525.973-4.825 2.567-6.584l.12-.128c.222-.238.455-.462.7-.679l.15-.131c.268-.226.547-.442.84-.642.025-.014.044-.033.067-.05a10.51 10.51 0 0 1 1.022-.604l.041-.02c.318-.163.648-.307.983-.437.101-.04.203-.073.306-.109.258-.092.518-.173.787-.243.124-.033.248-.066.374-.094.27-.06.54-.109.813-.148.119-.018.235-.038.355-.053.391-.043.788-.071 1.193-.071.6 0 1.185.056 1.758.152.073.013.15.017.223.032.1.019.195.047.29.068a10.44 10.44 0 0 1 2.43.842l.01.006c.279.137.55.287.814.45l.066.048c.24.15.478.308.705.48.022.015.04.031.058.045.227.173.45.353.662.544.017.014.033.036.051.05.21.192.416.39.608.598.02.025.04.051.062.074.187.204.366.413.534.634.072.091.134.193.205.29.108.154.222.304.326.464.102.165.192.34.288.51.053.097.116.193.167.295.096.19.18.387.263.586.04.087.082.17.12.26.108.28.206.567.289.857.003.01.007.018.008.03.173.603.29 1.227.344 1.872.028.263.041.53.041.803" mask="url(#b)"/></g><path fill="#686868" d="M43.804 16.688h-7.376l7.376-7.131v7.131zm4.417 0V.988h-.737l-19.902 19.27h16.222v4.999h4.417v-4.999h5.159v-3.57h-5.16z"/><path fill="#FF7800" d="M27.582 20.256l3.989-3.863c.302-1.044.473-2.136.473-3.272h-4.417c0 4.333-3.628 7.85-8.109 7.85-4.483 0-8.107-3.517-8.107-7.85 0-4.336 3.624-7.852 8.107-7.852 4.197 0 7.647 3.088 8.067 7.043-.426-5.137-4.858-9.182-10.28-9.182-5.704 0-10.318 4.474-10.318 9.99 0 6.7 5.608 12.135 12.531 12.135 4.163 0 7.838-1.972 10.117-4.999h-2.053z"/><path fill="#686868" d="M78.354 13.81c0-.05-.035-.075-.104-.075h-5.298c-.051 0-.078.025-.078.076v4.012c0 .067.027.1.078.1h5.298c.07 0 .104-.033.104-.1V13.81zm-3.88-2.183v-2.97h-4.406V6.548h4.406V3.883H69.57c-.228 0-.332.102-.314.305v17.443h12.612V4.188c0-.203-.114-.305-.341-.305H76.65v2.666h4.562v2.107H76.65v2.97h3.566c.21 0 .314.103.314.306v7.795c0 .203-.104.305-.314.305h-9.204c-.21 0-.314-.102-.314-.305v-7.795c0-.203.104-.305.314-.305h3.462zM69.256 24.83h-2.281V2.512c.016-.49.27-.736.76-.736h15.602c.542 0 .812.254.812.762V24.83h-2.281v-1.09H69.256v1.09zm-7.133-11.806l-2.176-.864C62.34 8.758 63.8 5.026 64.327.963l2.254.305c-.42 2.421-.944 4.478-1.574 6.17v17.621h-2.175V11.983c-.245.372-.482.72-.709 1.041zm38.889 4.596c-1.783 2.792-4.3 5.238-7.552 7.337l-1.784-1.65c7.168-3.91 10.856-10.842 11.066-20.795V1.065h2.387v1.447c0 .34-.01.67-.027.99h.027c.07 2.98.506 5.51 1.31 7.592 1.539 4.334 4.826 8.506 9.86 12.518l-1.993 1.396a86.543 86.543 0 0 1-3.278-3.047c-3.444-3.402-5.804-7.16-7.08-11.273-.699 2.523-1.677 4.833-2.936 6.931m43.791 3.758v-6.17c0-.203-.113-.305-.34-.305h-5.245c-.227 0-.332.102-.315.306v6.17h5.9zm-5.9 3.098h-2.281V13.05c-.017-.238.105-.357.368-.357h9.597c.332 0 .498.153.498.458v11.324h-2.282v-.889h-5.9v.89zm-11.117-20.44c-.07 0-.105.035-.105.102v4.265c0 .086.034.127.105.127h15.418c.087-.015.13-.058.13-.127V4.137c-.016-.067-.06-.102-.13-.102h-15.418zm4.222 17.342v-6.17c0-.203-.114-.305-.342-.305h-5.243c-.228 0-.333.102-.316.306v6.17h5.9zm13.268-10.639h-19.562c-.21 0-.315-.11-.315-.33V2.132c0-.204.106-.306.315-.306h19.562c.227 0 .34.102.34.306v8.276c0 .22-.113.33-.34.33zm-19.169 13.737h-2.281V13.05c-.017-.238.105-.357.367-.357h9.598c.332 0 .498.153.498.458v11.324h-2.281v-.889h-5.9v.89zm46.1-11.883h3.907c.07 0 .105-.034.105-.101V9.926h-4.012v2.666zm0-4.672h4.012V5.33c0-.05-.035-.076-.105-.076h-3.907V7.92zm.708 6.678h-2.78a24.585 24.585 0 0 1-1.704 3.732h4.484v-3.732zm-2.78-4.672h-4.011v2.565c0 .067.026.101.078.101h3.933V9.926zm0-4.672h-3.933c-.052 0-.078.025-.078.076v2.59h4.011V5.254zm-6.555 15.183V18.33h2.255c.962-1.252 1.626-2.497 1.993-3.732h-3.225c-.368 0-.55-.186-.55-.559V3.782c0-.356.182-.534.55-.534h4.273c.595-.897 1.032-1.659 1.312-2.285l2.019 1.066c-.192.391-.402.797-.63 1.22h6.136c.385 0 .577.177.577.533v10.257c0 .373-.192.559-.577.559h-2.622v3.732h4.038v2.107h-4.038v4.52h-2.176v-4.52h-9.335zm-6.005-5.256c-.349 4.69-.681 7.77-.996 9.243l-2.229-.228c.769-3.25 1.154-7.262 1.154-12.035V1.268h2.177v6.957h2.228V1.167h2.176v7.058h1.102v2.006h-5.506v1.93c-.018.27-.027.583-.027.939h4.327c.349 0 .524.178.524.533v10.74h-2.176v-8.988c-.018-.186-.114-.28-.289-.28h-2.465c-.017.035-.017.061 0 .076z"/></g></svg>